<svg xmlns="http://www.w3.org/2000/svg" width="80" height="77" viewBox="0 0 80 77"><defs><mask id="9xe2b" width="2" height="2" x="-1" y="-1"><path fill="#fff" d="M4 2h70v67H4z"/><path d="M37 69C18.775 69 4 54.225 4 36v-1C4 16.775 18.775 2 37 2h4c18.225 0 33 14.775 33 33v1c0 18.225-14.775 33-33 33z"/></mask><filter id="9xe2a" width="103" height="102" x="-12" y="-14" filterUnits="userSpaceOnUse"><feOffset dx="1" dy="3" in="SourceGraphic" result="FeOffset1055Out"/><feGaussianBlur in="FeOffset1055Out" result="FeGaussianBlur1056Out" stdDeviation="2.4 2.4"/></filter></defs><g><g><g filter="url(#9xe2a)"><path fill="none" d="M37 69C18.775 69 4 54.225 4 36v-1C4 16.775 18.775 2 37 2h4c18.225 0 33 14.775 33 33v1c0 18.225-14.775 33-33 33z" mask="url(&quot;#9xe2b&quot;)"/><path fill-opacity=".16" d="M37 69C18.775 69 4 54.225 4 36v-1C4 16.775 18.775 2 37 2h4c18.225 0 33 14.775 33 33v1c0 18.225-14.775 33-33 33z"/></g><path fill="#006241" d="M37 69C18.775 69 4 54.225 4 36v-1C4 16.775 18.775 2 37 2h4c18.225 0 33 14.775 33 33v1c0 18.225-14.775 33-33 33z"/></g><g><path fill="#fff" d="M54.988 42.267l-7.203-3.087a1.543 1.543 0 0 0-1.801.444l-3.19 3.897A23.837 23.837 0 0 1 31.4 32.126l3.897-3.19a1.54 1.54 0 0 0 .444-1.8l-3.087-7.203a1.554 1.554 0 0 0-1.769-.894l-6.688 1.543c-.7.162-1.196.786-1.196 1.504 0 16.496 13.37 29.84 29.84 29.84.72.001 1.343-.495 1.505-1.195l1.544-6.689a1.562 1.562 0 0 0-.901-1.775z"/></g></g></svg>