<svg xmlns="http://www.w3.org/2000/svg" width="80" height="77" viewBox="0 0 80 77"><defs><mask id="m1h5b" width="2" height="2" x="-1" y="-1"><path fill="#fff" d="M4 2h70v67H4z"/><path d="M37 69C18.775 69 4 54.225 4 36v-1C4 16.775 18.775 2 37 2h4c18.225 0 33 14.775 33 33v1c0 18.225-14.775 33-33 33z"/></mask><filter id="m1h5a" width="103" height="102" x="-12" y="-14" filterUnits="userSpaceOnUse"><feOffset dx="1" dy="3" in="SourceGraphic" result="FeOffset1080Out"/><feGaussianBlur in="FeOffset1080Out" result="FeGaussianBlur1081Out" stdDeviation="2.4 2.4"/></filter></defs><g><g><g filter="url(#m1h5a)"><path fill="none" d="M37 69C18.775 69 4 54.225 4 36v-1C4 16.775 18.775 2 37 2h4c18.225 0 33 14.775 33 33v1c0 18.225-14.775 33-33 33z" mask="url(&quot;#m1h5b&quot;)"/><path fill-opacity=".16" d="M37 69C18.775 69 4 54.225 4 36v-1C4 16.775 18.775 2 37 2h4c18.225 0 33 14.775 33 33v1c0 18.225-14.775 33-33 33z"/></g><path fill="#006241" d="M37 69C18.775 69 4 54.225 4 36v-1C4 16.775 18.775 2 37 2h4c18.225 0 33 14.775 33 33v1c0 18.225-14.775 33-33 33z"/></g><g><path fill="#fff" d="M55.984 51.99H48.75V40.629c0-2.708-.055-6.18-3.768-6.18-3.769 0-4.346 2.941-4.346 5.985V51.99h-7.241V28.649h6.952v3.184h.101c.968-1.834 3.332-3.77 6.858-3.77 7.336 0 8.685 4.831 8.685 11.106V51.99zM25.228 25.466c-2.318 0-4.198-1.92-4.198-4.238a4.198 4.198 0 1 1 8.395 0c0 2.318-1.88 4.238-4.197 4.238zm3.628 26.526h-7.249V28.649h7.249z"/></g></g></svg>