<svg xmlns="http://www.w3.org/2000/svg" width="80" height="77" viewBox="0 0 80 77"><defs><mask id="g1tmb" width="2" height="2" x="-1" y="-1"><path fill="#fff" d="M4 2h70v67H4z"/><path d="M37 69C18.775 69 4 54.225 4 36v-1C4 16.775 18.775 2 37 2h4c18.225 0 33 14.775 33 33v1c0 18.225-14.775 33-33 33z"/></mask><filter id="g1tma" width="103" height="102" x="-12" y="-14" filterUnits="userSpaceOnUse"><feOffset dx="1" dy="3" in="SourceGraphic" result="FeOffset1023Out"/><feGaussianBlur in="FeOffset1023Out" result="FeGaussianBlur1024Out" stdDeviation="2.4 2.4"/></filter></defs><g><g><g filter="url(#g1tma)"><path fill="none" d="M37 69C18.775 69 4 54.225 4 36v-1C4 16.775 18.775 2 37 2h4c18.225 0 33 14.775 33 33v1c0 18.225-14.775 33-33 33z" mask="url(&quot;#g1tmb&quot;)"/><path fill-opacity=".16" d="M37 69C18.775 69 4 54.225 4 36v-1C4 16.775 18.775 2 37 2h4c18.225 0 33 14.775 33 33v1c0 18.225-14.775 33-33 33z"/></g><path fill="#006241" d="M37 69C18.775 69 4 54.225 4 36v-1C4 16.775 18.775 2 37 2h4c18.225 0 33 14.775 33 33v1c0 18.225-14.775 33-33 33z"/></g><g><g><path fill="none" stroke="#fff" stroke-linecap="round" stroke-linejoin="round" stroke-miterlimit="20" stroke-width="3" d="M24.097 20.516h30.617a3.838 3.838 0 0 1 3.827 3.827v22.963a3.838 3.838 0 0 1-3.827 3.827H24.097a3.838 3.838 0 0 1-3.827-3.827V24.343a3.838 3.838 0 0 1 3.827-3.827z"/></g><g><path fill="none" stroke="#fff" stroke-linecap="round" stroke-linejoin="round" stroke-miterlimit="20" stroke-width="3" d="M58.541 24.343v0L39.406 37.738v0L20.27 24.343v0"/></g></g></g></svg>